<svg xmlns="http://www.w3.org/2000/svg" viewBox="0 0 1600 900" role="img" aria-labelledby="title desc">
  <title id="title">Amazon Rainforest</title>
  <desc id="desc">Stylized rainforest canopy with river and layered foliage.</desc>
  <defs>
    <linearGradient id="sky" x1="0" y1="0" x2="0" y2="1">
      <stop offset="0%" stop-color="#31574a"/>
      <stop offset="100%" stop-color="#13231d"/>
    </linearGradient>
    <linearGradient id="river" x1="0" y1="0" x2="1" y2="1">
      <stop offset="0%" stop-color="#70d3d7"/>
      <stop offset="100%" stop-color="#2b6d7d"/>
    </linearGradient>
  </defs>
  <rect width="1600" height="900" fill="url(#sky)"/>
  <circle cx="1188" cy="152" r="76" fill="#d8ffbf" opacity="0.22"/>
  <path d="M0 568C224 506 384 520 548 564C760 620 948 624 1148 564C1320 512 1452 514 1600 544V900H0Z" fill="#193423"/>
  <path d="M0 650C202 616 390 630 570 672C802 728 1026 742 1222 702C1382 670 1500 666 1600 680V900H0Z" fill="#0f2217"/>
  <path d="M646 900C694 760 756 632 846 512C920 412 1016 348 1112 320C1048 412 1010 494 974 602C940 700 914 804 890 900Z" fill="url(#river)" opacity="0.88"/>
  <g fill="#29553a">
    <ellipse cx="216" cy="392" rx="210" ry="86"/>
    <ellipse cx="492" cy="356" rx="240" ry="96"/>
    <ellipse cx="822" cy="408" rx="250" ry="94"/>
    <ellipse cx="1186" cy="362" rx="250" ry="94"/>
    <ellipse cx="1460" cy="418" rx="176" ry="76"/>
  </g>
  <g fill="#3f7a53">
    <ellipse cx="180" cy="468" rx="220" ry="90"/>
    <ellipse cx="584" cy="448" rx="252" ry="96"/>
    <ellipse cx="996" cy="474" rx="246" ry="88"/>
    <ellipse cx="1378" cy="474" rx="208" ry="86"/>
  </g>
  <g fill="#173121">
    <rect x="280" y="448" width="18" height="236"/>
    <rect x="734" y="434" width="20" height="260"/>
    <rect x="1260" y="452" width="16" height="212"/>
  </g>
</svg>
